<svg width="213.98001098632812px" height="208.16000366210938px" xmlns="http://www.w3.org/2000/svg" viewBox="143.00999450683594 -29.080001831054688 213.98001098632812 208.16000366210938" style="background: rgb(61, 62, 64);" preserveAspectRatio="xMidYMid"><defs><filter id="editing-hover" x="-100%" y="-100%" width="300%" height="300%"><feFlood flood-color="#dadfe2" result="flood"></feFlood><feComposite operator="in" in2="SourceAlpha" in="flood" result="shadow"></feComposite><feOffset dx="0.1" dy="0.1" in="SourceGraphic" result="offset-1"></feOffset><feOffset dx="-0.1" dy="-0.1" in="shadow" result="offset-2"></feOffset><feMerge><feMergeNode in="offset-2"></feMergeNode><feMergeNode in="offset-1"></feMergeNode></feMerge></filter></defs><g filter="url(#editing-hover)"><g transform="translate(180.28001284599304, 110.90500783920288)"><path d="M32.35 2.67L32.35 2.67L32.35 2.67Q27.10 2.44 22.93 1.76L22.93 1.76L22.93 1.76Q18.75 1.07 14.86-0.47L14.86-0.47L14.86-0.47Q10.98-2.00 8.33-4.33L8.33-4.33L8.33-4.33Q5.69-6.67 3.93-10.31L3.93-10.31L3.93-10.31Q2.18-13.95 1.78-18.75L1.78-18.75L1.78-18.75Q1.78-19.60 2.67-19.73L2.67-19.73L2.67-19.73Q2.93-19.64 3.55-19.64L3.55-19.64L3.55-19.64Q7.24-19.64 14.75-19.82L14.75-19.82L14.75-19.82Q22.26-20.00 25.95-20.00L25.95-20.00L25.95-20.00Q26.88-20.00 27.42-19.40L27.42-19.40L27.42-19.40Q27.95-18.80 28.28-17.93L28.28-17.93L28.28-17.93Q28.62-17.06 29.08-16.20L29.08-16.20L29.08-16.20Q29.55-15.33 30.68-14.73L30.68-14.73L30.68-14.73Q31.81-14.13 33.59-14.13L33.59-14.13L33.59-14.13Q35.77-14.13 37.44-15.35L37.44-15.35L37.44-15.35Q39.10-16.57 39.10-18.66L39.10-18.66L39.10-18.66Q39.10-20.04 37.68-21.19L37.68-21.19L37.68-21.19Q36.26-22.35 33.93-23.08L33.93-23.08L33.93-23.08Q31.59-23.82 29.48-24.33L29.48-24.33L29.48-24.33Q27.37-24.84 25.15-25.22L25.15-25.22L25.15-25.22Q22.93-25.59 22.57-25.68L22.57-25.68L22.57-25.68Q11.77-28.62 7.04-32.97L7.04-32.97L7.04-32.97Q2.31-37.32 2.31-44.88L2.31-44.88L2.31-44.88Q2.31-50.21 4.27-54.45L4.27-54.45L4.27-54.45Q6.22-58.70 9.38-61.39L9.38-61.39L9.38-61.39Q12.53-64.07 16.84-65.87L16.84-65.87L16.84-65.87Q21.15-67.67 25.55-68.41L25.55-68.41L25.55-68.41Q29.95-69.14 34.66-69.14L34.66-69.14L34.66-69.14Q47.14-69.14 54.56-64.52L54.56-64.52L54.56-64.52Q57.27-61.81 58.54-60.41L58.54-60.41L58.54-60.41Q59.81-59.01 60.99-57.14L60.99-57.14L60.99-57.14Q62.16-55.28 62.63-53.48L62.63-53.48L62.63-53.48Q63.10-51.68 63.27-49.05L63.27-49.05L61.67-47.46L61.67-47.46Q52.56-47.10 41.23-47.10L41.23-47.10L41.23-47.10Q39.81-47.10 38.95-47.41L38.95-47.41L38.95-47.41Q38.08-47.72 37.79-48.21L37.79-48.21L37.79-48.21Q37.50-48.70 37.21-49.23L37.21-49.23L37.21-49.23Q36.92-49.77 36.68-50.25L36.68-50.25L36.68-50.25Q36.44-50.74 35.66-51.05L35.66-51.05L35.66-51.05Q34.88-51.37 33.59-51.37L33.59-51.37L33.59-51.37Q33.24-51.37 32.46-51.23L32.46-51.23L32.46-51.23Q31.68-51.10 30.64-50.81L30.64-50.81L30.64-50.81Q29.59-50.52 28.84-49.92L28.84-49.92L28.84-49.92Q28.08-49.32 28.08-48.52L28.08-48.52L28.08-48.52Q28.08-47.54 29.08-46.74L29.08-46.74L29.08-46.74Q30.08-45.94 31.19-45.59L31.19-45.59L31.19-45.59Q32.30-45.23 33.95-44.81L33.95-44.81L33.95-44.81Q35.59-44.39 35.99-44.26L35.99-44.26L35.99-44.26Q45.68-41.81 47.54-41.23L47.54-41.23L47.54-41.23Q57.27-38.17 61.32-33.19L61.32-33.19L61.32-33.19Q65.05-28.57 65.05-21.59L65.05-21.59L65.05-21.59Q65.05-17.37 63.96-13.91L63.96-13.91L63.96-13.91Q62.87-10.44 61.10-8.04L61.10-8.04L61.10-8.04Q59.32-5.64 56.65-3.78L56.65-3.78L56.65-3.78Q53.99-1.91 51.25-0.80L51.25-0.80L51.25-0.80Q48.52 0.31 45.06 1.07L45.06 1.07L45.06 1.07Q41.59 1.82 38.68 2.16L38.68 2.16L38.68 2.16Q35.77 2.49 32.35 2.67ZM71.45 1.24L69.49 0.18L69.49-19.91L69.49-19.91Q69.41-30.93 70.21-61.94L70.21-61.94L70.21-65.58L70.21-65.58Q70.21-66.56 70.56-66.74L70.56-66.74L101.13-66.74L101.13-66.74Q101.58-66.74 102.93-63.36L102.93-63.36L102.93-63.36Q104.29-59.99 106.22-54.68L106.22-54.68L106.22-54.68Q108.15-49.37 108.95-47.37L108.95-47.37L115.17-31.10L115.17-48.34L115.17-48.34Q115.17-50.57 115.28-56.50L115.28-56.50L115.28-56.50Q115.39-62.43 115.35-65.76L115.35-65.76L115.35-65.76Q115.35-67.01 122.46-67.01L122.46-67.01L122.46-67.01Q124.68-67.01 128.55-66.92L128.55-66.92L128.55-66.92Q132.41-66.83 133.30-66.83L133.30-66.83L136.68-66.83L136.68-66.83Q137.39-66.83 137.39-66.56L137.39-66.56L137.39-66.56Q137.66-54.21 137.66-31.19L137.66-31.19L137.66-0.36L137.66-0.36Q137.34 0.80 134.81 0.80L134.81 0.80L133.66 0.80L133.66 0.80Q131.35 0.80 126.86 0.89L126.86 0.89L126.86 0.89Q122.37 0.98 120.06 0.98L120.06 0.98L107.00 0.98L107.00 0.98Q106.37 0.76 104.42-4.62L104.42-4.62L104.42-4.62Q102.33-10.44 98.20-21.46L98.20-21.46L98.20-21.46Q94.07-32.48 93.58-33.77L93.58-33.77L93.58-33.77Q93.58-31.15 93.53-25.95L93.53-25.95L93.53-25.95Q93.49-20.75 93.49-18.13L93.49-18.13L93.49-18.13Q93.49-16.17 93.58-12.26L93.58-12.26L93.58-12.26Q93.67-8.35 93.67-6.40L93.67-6.40L93.67-0.80L93.67-0.80Q93.67 1.24 91.89 1.24L91.89 1.24L71.45 1.24ZM137.39-66.47L137.39-66.65L137.39-66.47Z" fill="#fffbf8"></path></g></g><style>text {
  font-size: 64px;
  font-family: Arial Black;
  dominant-baseline: central;
  text-anchor: middle;
}</style></svg>